<svg width="21" height="19" viewBox="0 0 21 19" fill="none" xmlns="http://www.w3.org/2000/svg">
    <path d="M9.98998 0.514336C9.61515 0.514878 9.2441 0.592966 8.89802 0.74414C8.55194 0.895315 8.23761 1.11662 7.97297 1.39541C7.70833 1.6742 7.49856 2.00502 7.35564 2.36899C7.21273 2.73295 7.13947 3.12293 7.14004 3.51666C7.14061 3.91039 7.215 4.30015 7.35897 4.6637C7.50293 5.02725 7.71366 5.35747 7.9791 5.63549C8.24455 5.91352 8.55952 6.13391 8.90604 6.28408C9.25256 6.43425 9.62383 6.51126 9.99866 6.51072C10.7557 6.50963 11.4812 6.19269 12.0157 5.62965C12.5501 5.06661 12.8498 4.30357 12.8486 3.5084C12.8475 2.71323 12.5456 1.95106 12.0095 1.38957C11.4734 0.82807 10.747 0.51324 9.98998 0.514336ZM16.4207 2.00263C15.8524 2.00345 15.3077 2.24139 14.9064 2.66409C14.5052 3.0868 14.2803 3.65965 14.2811 4.25662C14.282 4.8536 14.5086 5.4258 14.911 5.84734C15.3135 6.26888 15.8589 6.50524 16.4272 6.50442C16.9955 6.5036 17.5402 6.26566 17.9415 5.84295C18.3428 5.42025 18.5677 4.8474 18.5668 4.25042C18.566 3.65345 18.3394 3.08125 17.9369 2.65971C17.5344 2.23816 16.989 2.00181 16.4207 2.00263ZM3.56358 2.02124C2.99526 2.02206 2.45056 2.25999 2.04931 2.6827C1.64806 3.10541 1.42312 3.67826 1.42399 4.27523C1.42485 4.87221 1.65144 5.4444 2.05392 5.86595C2.45639 6.28749 3.00178 6.52385 3.5701 6.52303C4.13842 6.5222 4.68312 6.28427 5.08437 5.86156C5.48562 5.43886 5.71056 4.866 5.7097 4.26903C5.70883 3.67206 5.48224 3.09986 5.07976 2.67831C4.67729 2.25677 4.1319 2.02041 3.56358 2.02124ZM5.71728 9.51062C5.71935 9.11445 5.87047 8.73524 6.13769 8.45571C6.40491 8.17617 6.76654 8.01899 7.14369 8.01846L12.858 8.01019C13.2369 8.00964 13.6004 8.16721 13.8688 8.44824C14.1371 8.72927 14.2881 9.11073 14.2887 9.50871L14.2952 14.0105C14.2958 14.4828 14.2261 14.9522 14.0887 15.4019C13.7738 16.4208 13.1235 17.2884 12.2544 17.8488C11.3853 18.4093 10.3544 18.626 9.34685 18.4599C8.33929 18.2938 7.42105 17.7558 6.75701 16.9426C6.09298 16.1294 5.72665 15.0942 5.72381 14.0229L5.71728 9.51062ZM4.28873 9.52319C4.28793 8.97547 4.42576 8.46357 4.66941 8.02204L1.42941 8.02673C1.05053 8.02727 0.687401 8.1859 0.419899 8.4677C0.152398 8.74951 0.00244075 9.13141 0.00301674 9.52939L0.00844618 13.2809C0.00914055 13.8951 0.15339 14.4997 0.428527 15.0417C0.703665 15.5837 1.10127 16.0465 1.58644 16.3894C2.0716 16.7323 2.62947 16.9448 3.21107 17.0083C3.79266 17.0719 4.38019 16.9844 4.92205 16.7537C4.50965 15.9088 4.29479 14.9729 4.29524 14.0235L4.28873 9.52319ZM15.7173 9.50665L15.7238 14.0084C15.7252 14.9913 15.5023 15.919 15.1049 16.7389C15.6474 16.9681 16.2352 17.0539 16.8166 16.9887C17.398 16.9235 17.9553 16.7093 18.4394 16.365C18.9236 16.0207 19.3199 15.5568 19.5934 15.014C19.867 14.4712 20.0095 13.8661 20.0084 13.2519L20.003 9.50044C20.0024 9.10246 19.8514 8.721 19.583 8.43997C19.3147 8.15894 18.9511 8.00137 18.5723 8.00191L15.3323 8.0066C15.5758 8.44743 15.7165 8.95893 15.7173 9.50665Z" fill="#8686A0"/>
</svg>
