<svg width="25" height="25" viewBox="0 0 25 25" fill="none" xmlns="http://www.w3.org/2000/svg">
    <path d="M20.1597 4.87745L16.7292 4.88242L16.727 3.39805C16.7263 2.90449 16.3728 2.50793 15.9341 2.50857L6.96188 2.52155C6.52317 2.52219 6.17079 2.91977 6.1715 3.41332L6.17365 4.8977L2.7431 4.90266C2.30439 4.9033 1.95201 5.30088 1.95272 5.79443L1.95573 7.87255C1.95765 9.19736 2.70181 10.5582 4.00298 11.6065C5.04326 12.4474 6.3074 12.9799 7.63369 13.1487C8.67225 15.0806 9.88399 15.8767 9.88399 15.8767L9.88786 18.5486L8.30453 18.5509C7.14012 18.5526 6.19453 19.3221 6.19643 20.6321L6.19707 21.0774C6.19742 21.3223 6.37584 21.5224 6.59355 21.5221L16.3574 21.508C16.5751 21.5077 16.753 21.307 16.7526 21.0621L16.752 20.6168C16.7501 19.3068 15.8023 18.54 14.6379 18.5417L13.0545 18.544L13.0507 15.8721C13.0507 15.8721 14.2601 15.0725 15.2931 13.1376C16.6221 12.965 17.8847 12.4288 18.9193 11.5849C20.2141 10.5328 20.9576 9.16986 20.9557 7.84505L20.9527 5.76693C20.952 5.27338 20.5985 4.87682 20.1597 4.87745ZM5.23387 9.67875C4.42806 9.02679 4.06746 8.29997 4.06684 7.8695L4.06598 7.27575L6.18369 7.27268C6.21842 8.4824 6.37829 9.5435 6.61054 10.4709C6.11217 10.2786 5.64668 10.0121 5.23387 9.67875ZM18.8446 7.84811C18.8455 8.44557 18.2627 9.1886 17.6828 9.66073C17.271 9.99531 16.803 10.2632 16.3051 10.4569C16.5347 9.5288 16.6915 8.46724 16.7227 7.25743L18.8437 7.25436L18.8446 7.84811Z" fill="#8686A0"/>
</svg>
